<mxfile host="app.diagrams.net" modified="2023-07-20T21:05:43.048Z" agent="Mozilla/5.0 (Macintosh; Intel Mac OS X 10_15_7) AppleWebKit/537.36 (KHTML, like Gecko) Chrome/112.0.0.0 Safari/537.36" version="21.6.1" etag="TL2FGGatGDhXmN34Q1go" type="github">
  <diagram name="Page-1" id="KAGHW0fzyHurFAmG-pjc">
    <mxGraphModel>
      <root>
        <mxCell id="0" />
        <mxCell id="1" parent="0" />
      </root>
    </mxGraphModel>
  </diagram>
</mxfile>
